<svg width="132" height="49" viewBox="0 0 132 49" fill="none" xmlns="http://www.w3.org/2000/svg">
<path d="M3.12 48C2.24 48 1.5 47.7 0.9 47.1C0.3 46.5 8.9407e-08 45.76 8.9407e-08 44.88V4.26C8.9407e-08 3.34 0.3 2.6 0.9 2.04C1.5 1.44 2.24 1.14 3.12 1.14H30.24C31.16 1.14 31.9 1.42 32.46 1.98C33.02 2.5 33.3 3.2 33.3 4.08C33.3 4.92 33.02 5.6 32.46 6.12C31.9 6.64 31.16 6.9 30.24 6.9H6.24V21.48H23.46C24.38 21.48 25.12 21.76 25.68 22.32C26.24 22.84 26.52 23.52 26.52 24.36C26.52 25.2 26.24 25.9 25.68 26.46C25.12 26.98 24.38 27.24 23.46 27.24H6.24V42.24H30.24C31.16 42.24 31.9 42.5 32.46 43.02C33.02 43.54 33.3 44.22 33.3 45.06C33.3 45.94 33.02 46.66 32.46 47.22C31.9 47.74 31.16 48 30.24 48H3.12Z" fill="white"/>
<path d="M63.6717 48.6C60.1517 48.6 56.9317 48.02 54.0117 46.86C51.0917 45.66 48.5717 44 46.4517 41.88C44.3717 39.72 42.7517 37.18 41.5917 34.26C40.4317 31.3 39.8517 28.06 39.8517 24.54C39.8517 21.02 40.4317 17.8 41.5917 14.88C42.7517 11.96 44.3717 9.44 46.4517 7.32C48.5717 5.16 51.0917 3.5 54.0117 2.34C56.9317 1.14 60.1517 0.539999 63.6717 0.539999C67.1917 0.539999 70.3917 1.14 73.2717 2.34C76.1917 3.5 78.7117 5.16 80.8317 7.32C82.9517 9.44 84.5917 11.96 85.7517 14.88C86.9117 17.8 87.4917 21.02 87.4917 24.54C87.4917 28.06 86.9117 31.3 85.7517 34.26C84.5917 37.18 82.9517 39.72 80.8317 41.88C78.7117 44 76.1917 45.66 73.2717 46.86C70.3917 48.02 67.1917 48.6 63.6717 48.6ZM63.6717 42.96C66.2717 42.96 68.6517 42.5 70.8117 41.58C73.0117 40.62 74.9117 39.32 76.5117 37.68C78.1117 36 79.3317 34.04 80.1717 31.8C81.0517 29.56 81.4917 27.14 81.4917 24.54C81.4917 21.94 81.0517 19.52 80.1717 17.28C79.3317 15.04 78.1117 13.1 76.5117 11.46C74.9117 9.78 73.0117 8.48 70.8117 7.56C68.6517 6.64 66.2717 6.18 63.6717 6.18C61.0717 6.18 58.6717 6.64 56.4717 7.56C54.3117 8.48 52.4317 9.78 50.8317 11.46C49.2717 13.1 48.0517 15.04 47.1717 17.28C46.2917 19.52 45.8517 21.94 45.8517 24.54C45.8517 27.14 46.2917 29.56 47.1717 31.8C48.0517 34.04 49.2717 36 50.8317 37.68C52.4317 39.32 54.3117 40.62 56.4717 41.58C58.6717 42.5 61.0717 42.96 63.6717 42.96ZM94.2338 48C93.1138 48 92.2538 47.52 91.6538 46.56C91.0538 45.6 90.9938 44.58 91.4738 43.5L108.334 3.24C108.934 1.84 109.914 1.14 111.274 1.14C112.714 1.14 113.694 1.84 114.214 3.24L131.134 43.62C131.574 44.74 131.494 45.76 130.894 46.68C130.334 47.56 129.474 48 128.314 48C127.714 48 127.134 47.84 126.574 47.52C126.054 47.16 125.674 46.68 125.434 46.08L110.554 9.12H112.234L97.1138 46.08C96.8338 46.72 96.4138 47.2 95.8538 47.52C95.3338 47.84 94.7938 48 94.2338 48ZM97.4138 37.68L99.8138 32.52H123.334L125.734 37.68H97.4138Z" fill="#287EFF"/>
</svg>
